<?xml version="1.0" standalone="no"?>
<!DOCTYPE svg PUBLIC "-//W3C//DTD SVG 20010904//EN"
 "http://www.w3.org/TR/2001/REC-SVG-20010904/DTD/svg10.dtd">
<svg version="1.0" xmlns="http://www.w3.org/2000/svg"
 width="32.000000pt" height="32.000000pt" viewBox="0 0 32.000000 32.000000"
 preserveAspectRatio="xMidYMid meet">

<g transform="translate(0.000000,32.000000) scale(0.100000,-0.100000)"
fill="#000000" stroke="none">
<path d="M139 248 c-15 -42 -17 -43 -68 -48 l-53 -5 41 -30 c22 -16 41 -33 41
-36 0 -4 -7 -26 -15 -49 -8 -24 -14 -45 -12 -46 2 -2 22 10 45 27 l42 31 42
-31 c23 -17 43 -29 45 -28 2 2 -4 25 -13 51 -9 26 -15 48 -13 50 2 1 22 16 43
32 l40 29 -54 5 c-52 5 -54 6 -69 48 -8 23 -18 42 -21 42 -3 0 -13 -19 -21
-42z"/>
<path d="M79 250 l-24 -19 26 -1 c18 0 28 6 32 20 7 25 -4 25 -34 0z"/>
<path d="M207 250 c4 -14 14 -20 32 -20 l26 1 -24 19 c-30 25 -41 25 -34 0z"/>
<path d="M30 127 c0 -28 29 -73 30 -45 0 9 2 22 5 30 3 7 -4 19 -15 26 -18 11
-20 10 -20 -11z"/>
<path d="M268 136 c-13 -10 -15 -19 -9 -42 l8 -29 12 23 c7 13 11 31 9 42 -3
16 -6 17 -20 6z"/>
<path d="M131 36 c-10 -11 -8 -16 8 -21 12 -3 30 -3 42 0 16 5 18 10 8 21 -6
8 -19 14 -29 14 -10 0 -23 -6 -29 -14z"/>
</g>
</svg>
